<?xml version="1.0" standalone="no"?>
<!DOCTYPE svg PUBLIC "-//W3C//DTD SVG 20010904//EN"
 "http://www.w3.org/TR/2001/REC-SVG-20010904/DTD/svg10.dtd">
<svg version="1.0" xmlns="http://www.w3.org/2000/svg"
 width="200.000000pt" height="200.000000pt" viewBox="0 0 200.000000 200.000000"
 preserveAspectRatio="xMidYMid meet">

<g transform="translate(0.000000,200.000000) scale(0.100000,-0.100000)"
fill="#000000" stroke="none">
<path d="M885 1994 c-87 -13 -188 -39 -255 -67 -307 -126 -521 -373 -603 -697
-31 -122 -30 -339 1 -463 94 -375 380 -656 757 -743 110 -26 320 -26 430 0
377 87 663 368 757 743 32 125 32 341 0 466 -92 367 -373 649 -737 738 -78 19
-285 33 -350 23z m78 -181 c-35 -3 -48 -11 -73 -44 -18 -21 -29 -39 -26 -39
17 0 146 72 146 81 0 5 5 7 11 4 6 -5 4 -12 -8 -21 -16 -12 -16 -15 -3 -25 13
-9 12 -10 -2 -5 -15 5 -18 -2 -20 -42 l-2 -47 -3 48 c-2 26 -6 47 -9 47 -12 0
-104 -51 -104 -58 0 -12 96 -62 119 -62 28 0 123 59 115 72 -4 6 -1 8 7 6 16
-6 69 18 69 31 0 5 -14 14 -30 21 -17 7 -29 15 -26 17 2 2 21 -5 43 -15 78
-41 164 -157 162 -219 -1 -25 -2 -25 -7 -6 -6 19 -11 17 -55 -34 -26 -31 -46
-57 -43 -60 2 -2 27 8 56 22 29 14 54 25 56 23 2 -2 -4 -31 -12 -63 -29 -110
-138 -215 -229 -220 -27 -2 -29 -1 -7 2 17 2 32 6 32 9 0 17 -43 84 -50 79 -6
-4 -10 -1 -10 4 0 7 -27 11 -67 11 l-67 0 49 -50 50 -51 17 38 c17 36 15 13
-3 -34 -8 -22 -12 -23 -149 -23 l-140 0 0 305 0 305 128 -2 c70 -1 108 -3 85
-5z m130 -10 c-7 -2 -21 -2 -30 0 -10 3 -4 5 12 5 17 0 24 -2 18 -5z m-23 -58
c14 -8 21 -14 15 -14 -5 0 -21 6 -35 14 -14 8 -20 14 -15 14 6 0 21 -6 35 -14z
m-335 -615 c3 -5 3 -15 -1 -21 -5 -8 -9 -7 -14 1 -11 18 -40 4 -40 -18 0 -25
23 -44 44 -36 9 3 16 2 16 -4 0 -16 -28 -22 -55 -12 -20 8 -25 16 -25 44 0 23
6 39 18 45 22 13 49 14 57 1z m105 -4 c0 -9 -7 -12 -20 -9 -14 4 -20 0 -20
-11 0 -10 6 -13 15 -10 9 4 15 0 15 -10 0 -10 -6 -13 -15 -10 -10 4 -15 0 -15
-11 0 -12 6 -16 20 -12 11 3 20 1 20 -4 0 -5 -19 -9 -42 -8 -24 0 -37 3 -30 6
15 6 16 65 0 81 -9 9 -3 12 30 12 29 0 42 -4 42 -14z m80 7 c0 -5 10 -19 21
-33 l21 -25 -6 33 c-5 28 -3 32 15 32 15 0 19 -5 15 -16 -3 -9 -6 -31 -6 -50
0 -44 -21 -45 -50 -1 l-21 32 4 -32 c3 -30 1 -33 -22 -32 -14 0 -20 3 -13 6
14 6 17 73 2 73 -5 0 -10 5 -10 10 0 11 50 14 50 3z m190 -13 c0 -11 -4 -20
-10 -20 -5 0 -10 5 -10 10 0 6 -4 10 -10 10 -15 0 -12 -67 3 -73 6 -3 -4 -5
-23 -5 -19 0 -29 2 -22 5 14 6 17 73 2 73 -5 0 -10 -5 -10 -11 0 -5 -4 -7 -10
-4 -5 3 -10 13 -10 21 0 10 13 14 50 14 43 0 50 -3 50 -20z m100 4 c11 -12 10
-18 -3 -31 -15 -15 -15 -19 -1 -34 14 -15 11 -17 -28 -17 l-43 -1 0 49 c0 49
0 50 31 50 17 0 37 -7 44 -16z m125 -4 c37 -41 -14 -107 -64 -81 -15 9 -21 21
-21 46 0 52 50 73 85 35z m-125 -156 c0 -8 -4 -14 -10 -14 -5 0 -10 5 -10 10
0 17 -28 11 -39 -7 -12 -21 3 -53 25 -53 11 0 13 6 9 20 -5 16 -2 20 15 20 16
0 20 -4 16 -16 -3 -9 -6 -22 -6 -30 0 -21 -54 -17 -75 6 -34 38 6 96 57 82 10
-2 18 -11 18 -18z m370 0 c0 -17 -17 -18 -23 -1 -6 20 -38 -13 -35 -37 2 -15
12 -22 31 -24 32 -4 26 -22 -7 -22 -31 0 -48 22 -44 57 5 43 78 69 78 27z
m-1261 -6 c16 -44 -12 -78 -66 -78 -18 0 -33 5 -33 10 0 6 4 10 8 10 12 0 13
52 1 66 -9 12 -3 14 35 14 39 0 48 -4 55 -22z m111 12 c0 -5 -8 -9 -17 -7 -10
1 -19 -2 -20 -8 -1 -5 5 -9 13 -7 8 2 14 -4 14 -13 0 -9 -6 -15 -14 -13 -8 2
-14 -1 -13 -7 1 -5 10 -9 20 -8 9 2 17 -4 17 -12 0 -11 -11 -15 -38 -15 l-37
0 0 50 0 50 38 0 c20 0 37 -4 37 -10z m123 3 c-16 -6 -17 -65 -1 -81 9 -9 7
-12 -13 -12 -22 0 -24 4 -24 50 0 47 2 50 25 49 14 0 19 -3 13 -6z m97 -20
l21 -28 -4 28 c-4 24 -1 27 22 26 14 0 20 -3 14 -6 -8 -3 -13 -23 -13 -49 0
-55 -18 -58 -49 -6 l-22 37 5 -37 c4 -36 3 -38 -22 -38 -20 0 -23 3 -14 12 16
16 15 75 0 81 -7 3 -1 6 14 6 17 1 33 -8 48 -26z m170 12 c0 -8 -4 -15 -10
-15 -5 0 -10 5 -10 11 0 5 -4 7 -10 4 -5 -3 -10 -19 -10 -36 0 -16 5 -29 10
-29 6 0 10 -4 10 -10 0 -5 -11 -10 -24 -10 -22 0 -23 3 -18 45 3 28 1 45 -6
45 -6 0 -13 -6 -15 -12 -3 -8 -6 -6 -6 5 -1 14 8 17 44 17 33 0 45 -4 45 -15z
m100 4 c0 -6 -9 -8 -20 -4 -14 4 -20 2 -20 -9 0 -10 6 -13 15 -10 10 4 15 0
15 -11 0 -11 -5 -15 -15 -11 -9 3 -15 0 -15 -10 0 -11 6 -13 20 -9 14 5 20 2
20 -9 0 -12 -10 -16 -40 -16 -22 0 -40 5 -40 10 0 6 5 10 10 10 15 0 12 67 -2
73 -7 3 6 6 30 6 23 1 42 -4 42 -10z m72 -29 c-3 -25 0 -40 7 -40 6 0 11 5 11
11 0 5 5 7 10 4 25 -15 9 -35 -28 -35 l-37 0 0 50 c0 43 3 50 20 50 18 0 20
-5 17 -40z m101 33 c-15 -6 -18 -73 -3 -73 6 0 10 -4 10 -10 0 -5 -10 -10 -23
-10 -20 0 -22 5 -22 50 0 47 2 50 25 49 14 0 19 -3 13 -6z m227 -2 c0 -5 -9
-7 -20 -4 -14 4 -20 0 -20 -12 0 -11 5 -15 15 -11 9 3 15 0 15 -10 0 -10 -6
-14 -15 -10 -9 3 -15 0 -15 -10 0 -11 6 -15 20 -11 13 3 20 0 20 -9 0 -10 -13
-14 -42 -14 -33 0 -39 3 -30 12 16 16 15 75 0 81 -7 3 6 6 30 6 23 1 42 -3 42
-8z m100 -23 l21 -33 -4 33 c-3 29 -1 32 22 31 14 0 20 -3 14 -6 -8 -3 -13
-23 -13 -49 0 -32 -4 -44 -15 -44 -8 0 -15 3 -15 8 0 4 -10 18 -21 32 l-21 25
6 -32 c5 -30 3 -33 -21 -33 -21 0 -24 3 -15 12 16 16 15 75 0 81 -7 3 -1 6 14
6 19 1 32 -8 48 -31z m233 25 c-16 -6 -17 -65 -1 -81 9 -9 4 -12 -22 -12 -26
0 -31 3 -22 12 16 16 15 75 0 81 -7 3 3 5 22 5 19 0 29 -2 23 -5z m108 -30 c6
-21 16 -44 22 -50 7 -10 3 -13 -18 -13 -20 0 -26 4 -21 15 4 10 -1 15 -15 15
-15 0 -19 -5 -15 -15 4 -11 -1 -15 -18 -15 l-24 0 19 40 c10 21 19 44 19 50 0
5 9 10 19 10 14 0 23 -11 32 -37z m-1262 -145 c0 -13 -3 -17 -6 -10 -2 6 -9
12 -15 12 -7 0 -9 -17 -6 -45 5 -42 4 -45 -18 -45 -13 0 -24 5 -24 10 0 6 5
10 10 10 6 0 10 16 10 35 0 37 -8 43 -28 23 -9 -9 -12 -7 -12 10 0 19 5 22 45
22 40 0 45 -2 44 -22z m101 8 c0 -9 -7 -12 -20 -9 -14 4 -20 0 -20 -11 0 -10
6 -13 15 -10 9 4 15 0 15 -10 0 -10 -6 -13 -15 -10 -10 4 -15 0 -15 -11 0 -12
6 -16 20 -12 13 3 20 0 20 -9 0 -16 -65 -20 -75 -4 -3 6 -1 10 4 10 6 0 11 16
11 35 0 19 -4 35 -10 35 -5 0 -10 5 -10 10 0 6 18 10 40 10 28 0 40 -4 40 -14z
m111 -2 c10 -13 10 -19 0 -37 -11 -17 -11 -22 3 -33 13 -9 14 -14 5 -19 -7 -5
-20 2 -31 16 -19 24 -19 24 -13 2 5 -18 2 -23 -14 -23 -11 0 -23 5 -26 10 -3
6 -1 10 4 10 6 0 11 16 11 35 0 19 -4 35 -10 35 -5 0 -10 5 -10 10 0 16 66 11
81 -6z m120 0 c10 -13 10 -20 0 -36 -9 -15 -9 -23 0 -34 6 -8 9 -18 5 -22 -4
-4 -17 4 -28 18 -20 24 -20 24 -14 3 6 -20 4 -23 -18 -23 -14 0 -26 5 -26 10
0 6 5 10 10 10 6 0 10 16 10 35 0 19 -4 35 -10 35 -5 0 -10 5 -10 10 0 16 66
11 81 -6z m84 -39 c0 -48 -2 -55 -20 -55 -18 0 -20 7 -20 55 0 48 2 55 20 55
18 0 20 -7 20 -55z m121 44 c3 -6 1 -16 -5 -22 -8 -8 -11 -8 -11 1 0 7 -5 12
-11 12 -8 0 -10 -15 -7 -45 5 -42 4 -45 -18 -45 -13 0 -24 5 -24 10 0 6 5 10
10 10 6 0 10 16 10 35 0 37 -8 43 -28 23 -9 -9 -12 -7 -12 10 0 19 5 22 44 22
25 0 48 -5 52 -11z m110 -14 c19 -30 11 -62 -21 -77 -36 -16 -65 5 -65 47 0
55 56 75 86 30z m113 11 c9 -11 10 -20 1 -36 -9 -16 -8 -25 1 -36 6 -8 9 -18
5 -22 -4 -4 -17 4 -28 18 -20 24 -20 24 -14 3 6 -20 4 -23 -18 -23 -14 0 -26
5 -26 10 0 6 5 10 10 10 6 0 10 16 10 35 0 19 -4 35 -10 35 -5 0 -10 5 -10 10
0 15 66 12 79 -4z m91 4 c0 -5 -4 -10 -8 -10 -10 0 -10 -56 1 -66 13 -14 7
-24 -15 -24 -21 0 -23 5 -23 55 0 50 2 55 23 55 12 0 22 -4 22 -10z m106 -37
c11 -27 21 -51 22 -55 2 -5 -6 -8 -18 -8 -16 0 -20 4 -16 15 4 11 -1 15 -19
15 -18 0 -23 -4 -19 -15 4 -11 0 -15 -16 -15 -12 0 -20 3 -18 8 2 4 11 28 22
55 10 26 24 47 31 47 7 0 21 -21 31 -47z m86 2 c-3 -28 -1 -45 6 -45 6 0 12 6
15 13 2 6 8 9 12 5 17 -16 -5 -38 -37 -38 l-33 0 0 55 c0 49 2 55 21 55 20 0
21 -4 16 -45z m-824 -192 c-2 -22 -9 -29 -29 -31 -23 -3 -27 1 -31 27 -4 29
-3 31 29 31 32 0 34 -2 31 -27z m78 -3 c1 -26 -2 -30 -26 -30 -24 0 -27 4 -26
30 1 25 5 30 26 30 21 0 25 -5 26 -30z m69 3 c0 -21 -6 -29 -21 -31 -17 -2
-21 2 -22 28 -1 25 3 30 22 30 17 0 22 -6 21 -27z m61 -3 c1 -22 -3 -30 -16
-30 -13 0 -17 8 -16 30 1 41 31 41 32 0z m78 15 c9 -25 -5 -46 -28 -43 -15 2
-22 11 -24 31 -3 23 0 27 21 27 14 0 27 -7 31 -15z m98 -14 c-3 -25 -8 -29
-37 -29 -29 0 -34 4 -37 29 -4 28 -3 29 37 29 40 0 41 -1 37 -29z m101 9 c-3
-12 -1 -20 5 -18 5 2 12 -1 14 -7 1 -5 -9 -11 -23 -13 -23 -3 -26 0 -25 27 1
22 6 31 18 31 11 0 15 -6 11 -20z m97 -6 c13 -33 13 -34 -5 -34 -8 0 -15 6
-16 13 0 10 -2 10 -6 0 -4 -12 -33 -19 -33 -9 0 20 23 56 35 56 9 0 20 -12 25
-26z m88 -1 c-2 -22 -9 -29 -29 -31 -23 -3 -26 0 -25 27 1 27 5 31 29 31 25 0
28 -3 25 -27z m-238 -24 c0 -5 -4 -9 -10 -9 -5 0 -10 7 -10 16 0 8 5 12 10 9
6 -3 10 -10 10 -16z m-500 -74 c0 -16 6 -25 16 -25 12 0 15 7 12 25 -4 16 -1
25 8 25 22 0 1 -55 -23 -58 -16 -2 -22 3 -25 27 -3 17 -1 31 4 31 4 0 8 -11 8
-25z m106 8 c13 -17 13 -17 14 0 0 9 4 17 8 17 5 0 7 -13 4 -30 -5 -35 -10
-37 -28 -12 -13 16 -13 16 -14 0 0 -31 -15 -19 -15 12 0 34 11 38 31 13z m79
-13 c0 -16 -4 -30 -10 -30 -5 0 -10 14 -10 30 0 17 5 30 10 30 6 0 10 -13 10
-30z m49 8 c5 -19 8 -20 15 -8 5 8 7 18 5 22 -3 4 0 8 5 8 13 0 13 -2 1 -34
-13 -34 -23 -33 -37 4 -6 17 -8 30 -3 30 4 0 10 -10 14 -22z m106 13 c0 -5 -7
-16 -15 -25 -13 -13 -13 -15 3 -19 13 -4 11 -5 -5 -6 -19 -1 -23 4 -23 29 0
23 4 30 20 30 11 0 20 -4 20 -9z m75 0 c3 -5 1 -12 -5 -16 -5 -3 -10 -1 -10 6
0 7 -3 9 -7 6 -3 -4 1 -15 11 -26 16 -18 16 -18 -9 -18 -21 0 -25 4 -25 28 0
22 5 29 19 29 11 0 22 -4 26 -9z m52 2 c-18 -5 -17 -6 2 -20 25 -17 19 -33
-12 -32 -17 1 -18 2 -4 6 21 6 22 19 1 27 -19 7 -9 26 14 25 14 -1 14 -2 -1
-6z m68 -23 c0 -16 -4 -30 -10 -30 -5 0 -10 14 -10 30 0 17 5 30 10 30 6 0 10
-13 10 -30z m80 0 c0 -19 -6 -26 -25 -28 -22 -2 -25 1 -25 28 0 27 3 30 25 28
19 -2 25 -9 25 -28z m73 5 c15 -33 16 -32 -17 -32 -27 0 -28 2 -19 29 12 35
21 35 36 3z m87 -5 c0 -19 -6 -26 -25 -28 -22 -2 -25 1 -25 28 0 27 3 30 25
28 19 -2 25 -9 25 -28z m-809 -88 c10 -27 10 -29 -16 -29 -26 0 -27 2 -18 29
6 15 13 28 17 28 4 0 11 -13 17 -28z m78 22 c21 -8 21 -54 1 -54 -8 0 -18 0
-22 0 -5 -1 -11 13 -14 30 -7 31 2 37 35 24z m94 -25 c4 -32 -21 -45 -43 -23
-11 12 -12 20 -4 35 14 28 43 20 47 -12z m52 1 c0 -39 -15 -39 -16 0 -1 17 3
30 7 30 5 0 9 -13 9 -30z m85 20 c3 -6 -1 -7 -9 -4 -9 3 -16 2 -16 -4 0 -6 4
-12 9 -14 5 -1 3 -8 -4 -15 -10 -9 -14 -6 -17 18 -4 23 -1 29 13 29 10 0 21
-4 24 -10z m79 -14 c9 -13 7 -20 -7 -31 -25 -18 -47 -8 -47 20 0 37 34 44 54
11z m86 -6 c0 -16 -3 -30 -7 -30 -5 0 -8 14 -8 30 0 17 3 30 8 30 4 0 7 -13 7
-30z m78 -2 c2 -16 -1 -28 -7 -28 -6 0 -14 0 -18 0 -5 -1 -11 13 -14 30 -6 28
-4 31 15 28 15 -2 22 -11 24 -30z m76 -3 c5 -16 1 -20 -19 -20 -14 0 -25 1
-25 2 0 1 5 14 10 29 11 28 23 24 34 -11z m60 27 c6 -10 -4 -52 -13 -52 -3 0
-6 14 -6 30 0 29 8 39 19 22z m38 -22 c-4 -30 -22 -36 -30 -10 -3 8 0 10 8 5
10 -6 12 -2 8 13 -4 14 -2 22 6 22 8 0 11 -11 8 -30z m61 23 c-7 -2 -13 -9
-13 -14 0 -6 5 -7 10 -4 15 9 12 -4 -4 -20 -12 -12 -14 -10 -18 15 -4 25 -1
30 16 29 12 0 15 -3 9 -6z m87 0 c-1 -13 -40 -56 -45 -51 -3 3 1 11 10 18 20
16 19 34 -1 26 -8 -3 -12 -2 -9 4 7 12 45 14 45 3z"/>
<path d="M767 1803 c-4 -3 -7 -47 -7 -97 l0 -91 24 30 c51 62 52 70 17 110
-17 20 -31 39 -31 43 1 4 14 -10 31 -30 17 -21 35 -38 39 -38 5 0 23 18 40 40
l32 40 -69 0 c-39 0 -73 -3 -76 -7z"/>
<path d="M1160 1731 l-24 -19 29 -5 c22 -3 18 -4 -15 -6 -34 -1 -59 -10 -98
-36 -28 -20 -52 -39 -52 -43 0 -4 8 -34 18 -67 16 -54 21 -60 43 -57 17 2 20
0 10 -6 -11 -8 -11 -10 0 -15 8 -3 5 -6 -8 -6 -17 -1 -20 -6 -16 -23 4 -21 4
-21 -9 2 -7 14 -29 31 -48 38 l-35 12 37 -5 36 -6 -18 62 c-10 34 -21 63 -23
66 -5 4 -100 -75 -105 -88 -2 -4 5 -9 15 -12 15 -4 15 -5 -3 -6 -11 0 -25 -6
-32 -13 -9 -9 -12 -8 -12 5 0 9 12 27 27 40 15 12 44 37 65 56 l39 34 -58 33
c-32 18 -61 34 -65 34 -5 0 -9 -17 -10 -37 -1 -37 -1 -37 -5 -5 -2 17 -7 32
-11 32 -4 -1 -22 -21 -39 -45 -29 -39 -33 -51 -33 -107 1 -55 5 -67 30 -97 33
-39 32 -39 48 9 10 30 11 31 6 5 -3 -16 -7 -37 -10 -46 -3 -11 7 -24 28 -37
18 -12 34 -19 36 -18 2 2 -4 32 -13 66 -9 34 -14 64 -12 67 3 2 13 -29 22 -68
l18 -73 21 25 c12 14 36 43 54 64 19 22 30 33 26 25 -4 -8 -25 -36 -46 -61
-21 -25 -38 -48 -38 -52 0 -4 31 -7 69 -7 60 0 69 2 66 18 -1 9 0 11 2 5 6
-19 10 -17 65 28 49 42 51 52 13 63 -12 3 -9 4 8 2 31 -4 31 -5 15 29 -6 14
-20 25 -32 26 -12 0 -15 3 -8 6 6 2 12 12 12 21 0 13 2 14 8 4 5 -7 17 -10 28
-7 17 6 18 6 2 -5 -17 -10 -17 -13 -2 -43 l17 -31 54 58 c30 32 52 61 49 64
-3 3 -1 11 4 18 8 8 6 23 -7 48 -9 20 -20 36 -23 36 -4 0 -19 -11 -34 -25 -15
-14 -31 -25 -37 -25 -22 0 -59 -34 -60 -54 0 -20 -1 -20 -9 -1 -5 11 -8 38 -8
60 1 37 2 37 5 7 3 -18 7 -32 11 -30 31 14 112 64 112 70 0 4 -12 9 -27 11
l-28 4 29 2 29 1 -23 25 c-28 30 -37 31 -70 6z m-123 -107 c-3 -3 -12 -4 -19
-1 -8 3 -5 6 6 6 11 1 17 -2 13 -5z m253 -16 c10 -6 7 -7 -10 -2 -14 3 -32 11
-40 16 -10 6 -7 7 10 2 14 -3 32 -11 40 -16z m-195 2 c13 -5 14 -9 5 -9 -8 0
-24 4 -35 9 -13 5 -14 9 -5 9 8 0 24 -4 35 -9z m-238 -47 c-3 -10 -5 -2 -5 17
0 19 2 27 5 18 2 -10 2 -26 0 -35z m393 -3 c-19 -11 -39 -19 -45 -19 -5 0 6 8
25 19 19 11 40 19 45 19 6 0 -6 -8 -25 -19z m-303 -56 c-3 -3 -12 -4 -19 -1
-8 3 -5 6 6 6 11 1 17 -2 13 -5z m170 -40 c-3 -3 -12 -4 -19 -1 -8 3 -5 6 6 6
11 1 17 -2 13 -5z m-60 -66 c-3 -8 -6 -5 -6 6 -1 11 2 17 5 13 3 -3 4 -12 1
-19z"/>
<path d="M1258 1467 c-40 -19 -48 -27 -49 -52 -1 -24 -3 -25 -6 -7 -2 12 -7
22 -9 22 -13 0 -104 -85 -104 -97 0 -16 38 -93 46 -93 3 0 21 11 40 24 l35 24
-43 16 c-39 15 -26 15 30 0 17 -5 22 -2 22 12 0 14 2 16 9 6 6 -10 15 -5 36
19 30 36 40 60 50 113 8 41 6 42 -57 13z m-41 -119 c-3 -7 -5 -2 -5 12 0 14 2
19 5 13 2 -7 2 -19 0 -25z"/>
<path d="M760 1373 c0 -50 3 -105 6 -122 6 -30 9 -31 56 -31 42 0 49 3 44 16
-3 9 -8 28 -11 42 -4 19 -1 17 8 -8 10 -24 16 -30 20 -20 4 10 6 8 6 -7 1 -21
6 -23 61 -23 33 0 60 4 60 8 0 11 -89 97 -94 91 -3 -3 -10 -16 -15 -29 -9 -22
-10 -20 -5 11 5 30 2 38 -20 52 -35 23 -38 22 -32 -15 l6 -33 -13 33 c-7 18
-16 30 -21 25 -5 -4 -6 1 -3 12 4 13 -4 31 -24 55 l-29 34 0 -91z m31 -74
c-11 -24 -20 -41 -20 -37 -1 12 31 89 35 85 3 -2 -4 -24 -15 -48z"/>
<path d="M1162 1108 c6 -18 28 -21 28 -4 0 9 -7 16 -16 16 -9 0 -14 -5 -12
-12z"/>
<path d="M1160 1060 c0 -5 5 -10 10 -10 6 0 10 5 10 10 0 6 -4 10 -10 10 -5 0
-10 -4 -10 -10z"/>
<path d="M1277 1113 c-14 -13 -7 -51 10 -57 24 -10 46 21 32 45 -10 19 -30 25
-42 12z"/>
<path d="M260 934 c0 -28 3 -35 18 -32 21 4 29 47 10 59 -23 15 -28 10 -28
-27z"/>
<path d="M1720 935 c0 -8 5 -15 10 -15 6 0 10 7 10 15 0 8 -4 15 -10 15 -5 0
-10 -7 -10 -15z"/>
<path d="M670 785 c0 -9 5 -15 11 -13 6 2 11 8 11 13 0 5 -5 11 -11 13 -6 2
-11 -4 -11 -13z"/>
<path d="M790 785 c0 -9 5 -15 11 -13 6 2 11 8 11 13 0 5 -5 11 -11 13 -6 2
-11 -4 -11 -13z"/>
<path d="M1084 786 c-10 -26 0 -51 21 -51 16 0 20 7 20 30 0 33 -30 49 -41 21z"/>
<path d="M1220 785 c0 -9 5 -15 11 -13 6 2 11 8 11 13 0 5 -5 11 -11 13 -6 2
-11 -4 -11 -13z"/>
<path d="M1416 775 c-3 -9 0 -15 9 -15 9 0 12 6 9 15 -4 8 -7 15 -9 15 -2 0
-5 -7 -9 -15z"/>
<path d="M1230 480 c0 -11 7 -20 15 -20 8 0 15 9 15 20 0 11 -7 20 -15 20 -8
0 -15 -9 -15 -20z"/>
<path d="M1315 480 c-3 -5 -1 -10 4 -10 6 0 11 5 11 10 0 6 -2 10 -4 10 -3 0
-8 -4 -11 -10z"/>
<path d="M1390 480 c0 -11 7 -20 15 -20 8 0 15 9 15 20 0 11 -7 20 -15 20 -8
0 -15 -9 -15 -20z"/>
<path d="M590 390 c0 -5 5 -10 11 -10 5 0 7 5 4 10 -3 6 -8 10 -11 10 -2 0 -4
-4 -4 -10z"/>
<path d="M670 391 c0 -12 6 -21 16 -21 9 0 14 7 12 17 -5 25 -28 28 -28 4z"/>
<path d="M754 396 c-4 -10 -2 -22 4 -28 8 -8 13 -7 18 6 4 10 2 22 -4 28 -8 8
-13 7 -18 -6z"/>
<path d="M964 395 c-3 -8 -3 -19 1 -25 10 -16 35 7 28 26 -7 18 -22 18 -29 -1z"/>
<path d="M1140 400 c0 -5 5 -10 10 -10 6 0 10 5 10 10 0 6 -4 10 -10 10 -5 0
-10 -4 -10 -10z"/>
<path d="M1140 369 c0 -5 5 -7 10 -4 6 3 10 8 10 11 0 2 -4 4 -10 4 -5 0 -10
-5 -10 -11z"/>
</g>
</svg>
