<svg xmlns="http://www.w3.org/2000/svg" width="133" height="126" viewBox="0 0 133 126" version="1.1"><path d="M 2.783 61.250 L 3.066 100.500 42.533 100.761 L 82 101.023 82 69.150 L 82 37.277 79.500 37.755 L 77 38.233 77 67.117 L 77 96 42.500 96 L 8 96 8 61.500 C 8 29.319, 8.118 26.998, 9.750 26.976 C 10.713 26.963, 27.362 26.973, 46.750 26.999 L 82 27.047 82 24.524 L 82 22 42.250 22 L 2.500 21.999 2.783 61.250 M 11 61 L 11 92 13.500 92 L 16 92 16 63 L 16 34 50.500 34 L 85 34 85.007 39.750 C 85.010 42.913, 85.042 58.100, 85.077 73.500 C 85.112 88.900, 85.109 102.063, 85.070 102.750 C 85.015 103.726, 76.896 104, 48 104 C 11.667 104, 11 104.036, 11 106 C 11 107.966, 11.667 108, 50.500 108 L 90 108 90 69 L 90 30 50.500 30 L 11 30 11 61" stroke="none" fill="#35adb0" fill-rule="evenodd"/><path d="M 0 63.007 L 0 126.014 66.750 125.757 L 133.500 125.500 133.758 62.750 L 134.015 0 67.008 0 L 0 0 0 63.007 M 0.471 63.500 C 0.471 98.150, 0.596 112.180, 0.750 94.678 C 0.903 77.175, 0.903 48.825, 0.749 31.678 C 0.596 14.530, 0.471 28.850, 0.471 63.500 M 2.783 61.250 L 3.066 100.500 42.533 100.761 L 82 101.023 82 69.150 L 82 37.277 79.500 37.755 L 77 38.233 77 67.117 L 77 96 42.500 96 L 8 96 8 61.500 C 8 29.319, 8.118 26.998, 9.750 26.976 C 10.713 26.963, 27.362 26.973, 46.750 26.999 L 82 27.047 82 24.524 L 82 22 42.250 22 L 2.500 21.999 2.783 61.250 M 11 61 L 11 92 13.500 92 L 16 92 16 63 L 16 34 50.500 34 L 85 34 85.007 39.750 C 85.010 42.913, 85.042 58.100, 85.077 73.500 C 85.112 88.900, 85.109 102.063, 85.070 102.750 C 85.015 103.726, 76.896 104, 48 104 C 11.667 104, 11 104.036, 11 106 C 11 107.966, 11.667 108, 50.500 108 L 90 108 90 69 L 90 30 50.500 30 L 11 30 11 61" stroke="none" fill="#f5f9fa" fill-rule="evenodd"/></svg>