<?xml version="1.0" standalone="no"?>
<!DOCTYPE svg PUBLIC "-//W3C//DTD SVG 20010904//EN"
 "http://www.w3.org/TR/2001/REC-SVG-20010904/DTD/svg10.dtd">
<svg version="1.0" xmlns="http://www.w3.org/2000/svg"
 width="2220.000000pt" height="2221.000000pt" viewBox="0 0 2220.000000 2221.000000"
 preserveAspectRatio="xMidYMid meet">

<g transform="translate(0.000000,2221.000000) scale(0.100000,-0.100000)"
fill="#000000" stroke="none">
<path d="M10635 22193 c-807 -39 -1504 -140 -2250 -327 -773 -194 -1475 -453
-2200 -811 -893 -441 -1673 -966 -2455 -1654 -200 -176 -728 -701 -905 -901
-1509 -1705 -2431 -3715 -2729 -5950 -64 -479 -90 -894 -90 -1445 0 -454 8
-633 45 -1038 314 -3438 2240 -6552 5189 -8389 518 -323 1112 -626 1685 -860
932 -380 1949 -636 2965 -747 774 -85 1646 -85 2420 0 2902 316 5553 1761
7403 4034 2208 2712 3003 6300 2151 9708 -435 1740 -1283 3334 -2497 4697
-163 182 -698 716 -877 874 -1177 1042 -2491 1798 -3950 2274 -936 305 -1902
482 -2909 532 -180 9 -834 11 -996 3z m280 -2003 l680 -30 450 -66 450 -65
365 -176 c201 -97 401 -193 445 -214 78 -37 92 -50 502 -461 l423 -423 261
-505 261 -505 50 -540 49 -540 -163 -670 -163 -669 -410 -508 -410 -508 -570
-358 -570 -358 -610 -67 -610 -68 -1512 1 -1513 0 0 3380 0 3380 958 0 c911 0
990 -1 1637 -30z m-2874 -7551 c141 -19 129 0 129 -204 l0 -175 -85 0 -84 0
-6 33 c-3 17 -9 54 -13 82 l-7 50 -55 8 c-63 9 -152 -4 -206 -29 -147 -70
-214 -308 -142 -501 26 -72 76 -125 146 -160 54 -27 64 -28 192 -27 113 0 145
4 194 22 33 12 61 21 63 19 4 -5 21 -211 17 -216 -2 -2 -34 -12 -71 -23 -96
-29 -341 -36 -436 -14 -99 23 -174 63 -238 126 -116 115 -170 314 -139 521 53
364 326 543 741 488z m6534 -4 c178 -46 294 -156 353 -333 22 -67 26 -95 26
-212 1 -113 -3 -146 -21 -205 -60 -190 -196 -323 -389 -381 -89 -27 -267 -25
-359 3 -88 28 -180 86 -228 145 -131 160 -165 458 -76 665 64 149 199 266 364
314 78 23 249 25 330 4z m-1290 -24 c89 -32 148 -80 180 -145 87 -177 -2 -383
-192 -443 -29 -9 -52 -19 -51 -22 2 -3 51 -79 110 -168 95 -144 110 -162 140
-168 18 -4 50 -11 71 -16 l37 -10 0 -70 0 -69 -167 2 -167 3 -103 170 c-222
367 -213 360 -213 141 l0 -153 50 -7 c81 -11 80 -10 80 -87 l0 -69 -280 0
-280 0 0 69 0 70 53 10 c28 5 71 13 95 16 l42 7 0 397 0 397 -85 11 c-47 7
-89 15 -95 18 -5 3 -10 35 -10 70 l0 64 123 4 c67 2 230 3 362 2 220 -2 245
-4 300 -24z m-3935 -136 l0 -155 -85 0 c-95 0 -87 -8 -103 95 l-7 50 -138 3
-137 3 0 -156 0 -155 88 0 89 0 12 55 12 55 80 0 79 0 -2 -187 -3 -188 -72 -3
c-80 -3 -85 0 -98 71 l-7 37 -89 0 -89 0 0 -165 0 -165 138 0 138 0 13 75 12
75 90 0 89 0 0 -160 0 -160 -450 0 -450 0 0 69 0 69 48 11 c26 6 68 13 95 17
l47 6 -2 396 -3 396 -78 12 c-112 17 -107 14 -107 89 l0 65 445 0 445 0 0
-155z m1039 -195 c119 -190 234 -374 255 -410 l38 -65 -6 85 c-3 47 -6 196 -6
333 l0 247 -23 0 c-13 0 -49 5 -80 11 l-57 12 0 68 0 69 270 0 270 0 0 -65 c0
-74 -4 -78 -100 -91 l-50 -7 0 -483 0 -484 -157 0 -158 0 -190 302 c-104 165
-221 353 -259 417 l-68 116 6 -49 c3 -27 6 -176 6 -332 l0 -282 43 -7 c23 -4
59 -11 80 -16 l37 -10 0 -69 0 -70 -285 0 -285 0 0 69 c0 58 3 71 18 75 17 5
140 26 155 26 4 0 7 180 7 400 l0 400 -26 0 c-15 0 -55 5 -90 12 l-64 11 0 69
0 68 251 -2 251 -3 217 -345z m1911 160 l0 -190 -83 0 -84 0 -13 100 -13 100
-109 0 -108 0 0 -389 0 -389 43 -7 c23 -3 66 -11 95 -16 l52 -10 0 -70 0 -69
-305 0 -305 0 0 69 0 70 53 10 c28 5 71 13 95 16 l42 7 0 389 0 389 -109 0
-109 0 -11 -82 c-18 -127 -10 -118 -107 -118 l-84 0 0 190 0 190 530 0 530 0
0 -190z m1058 -1520 l62 -12 0 -174 0 -174 -84 0 -84 0 -12 85 -12 84 -46 8
c-141 24 -272 -5 -356 -78 -117 -104 -156 -327 -85 -488 27 -62 101 -135 163
-162 57 -25 189 -36 266 -22 l45 9 0 114 0 115 -25 3 c-14 2 -49 7 -77 13
l-53 10 0 70 0 69 265 0 265 0 0 -69 0 -69 -50 -11 c-28 -6 -57 -11 -65 -11
-12 0 -15 -34 -17 -192 l-3 -193 -50 -17 c-161 -53 -414 -70 -545 -35 -191 51
-321 169 -375 341 -93 293 21 605 267 736 107 58 181 71 373 66 94 -2 198 -9
233 -16z m4090 0 l52 -12 0 -179 0 -179 -83 0 -84 0 -12 84 -13 85 -63 6
c-167 18 -296 -62 -345 -215 -30 -93 -26 -248 8 -325 30 -65 92 -128 156 -157
45 -20 66 -23 176 -22 100 0 138 5 190 22 35 12 68 18 71 14 4 -4 10 -53 14
-108 l6 -102 -33 -11 c-74 -24 -195 -41 -296 -41 -189 0 -310 40 -408 132
-108 102 -144 194 -151 388 -5 116 -2 148 16 219 53 211 203 359 411 406 75
17 302 14 388 -5z m-14203 -14 c192 -56 316 -184 354 -364 14 -68 14 -256 0
-324 -31 -148 -134 -283 -270 -351 -138 -69 -162 -72 -554 -72 l-350 0 -3 64
c-2 43 1 67 9 72 7 4 50 13 96 20 l83 12 0 397 0 397 -57 7 c-32 4 -75 11 -95
17 l-38 10 0 63 c0 34 3 66 7 70 4 4 177 6 383 3 319 -3 384 -6 435 -21z
m1500 -136 l0 -155 -83 -3 c-94 -3 -93 -4 -107 96 l-7 52 -139 0 -139 0 0
-155 0 -155 90 0 c64 0 92 4 94 13 2 6 8 30 12 52 l9 40 78 3 77 3 0 -186 0
-185 -80 0 -79 0 -6 38 c-11 64 -7 62 -105 62 l-90 0 0 -165 0 -165 140 0 139
0 6 38 c3 20 9 53 13 72 l8 35 87 3 87 3 0 -161 0 -160 -447 2 -448 3 -3 64
c-2 43 1 67 9 72 7 4 50 13 96 20 l83 12 0 397 0 397 -57 7 c-32 4 -75 11 -95
17 l-38 10 0 63 c0 34 3 66 7 69 3 4 205 6 447 5 l441 -3 0 -155z m1465 91 c0
-39 -4 -72 -10 -76 -5 -3 -45 -11 -90 -17 l-80 -12 0 -397 0 -397 53 -7 c28
-4 69 -11 90 -16 l37 -10 0 -69 0 -70 -300 0 -300 0 0 70 0 69 38 10 c20 5 61
12 90 16 l52 7 0 397 0 397 -80 12 c-45 6 -85 14 -90 17 -6 4 -10 37 -10 76
l0 69 300 0 300 0 0 -69z m962 -251 c109 -173 226 -360 259 -415 34 -55 58
-89 55 -75 -3 14 -6 163 -6 333 0 280 -1 307 -17 307 -9 0 -45 5 -80 11 l-63
11 0 74 0 74 265 0 265 0 0 -74 0 -74 -70 -13 -70 -12 0 -484 0 -483 -158 0
-158 0 -109 173 c-60 94 -157 249 -217 344 -59 94 -126 204 -149 245 l-41 73
6 -115 c3 -63 6 -212 6 -331 l0 -216 78 -14 77 -14 0 -70 0 -70 -285 0 -285 0
-3 64 c-2 43 1 67 9 72 7 4 50 13 96 20 l83 12 0 397 0 397 -57 7 c-32 4 -75
11 -95 17 l-38 10 0 63 c0 34 3 66 7 70 4 3 117 5 252 4 l245 -3 198 -315z
m1938 125 l0 -195 -84 0 -84 0 -11 75 c-6 42 -11 87 -11 100 l0 25 -110 0
-110 0 0 -389 0 -389 83 -12 c46 -6 89 -15 96 -19 8 -5 11 -29 9 -72 l-3 -64
-302 -3 -303 -2 0 69 0 70 38 10 c20 5 61 12 90 16 l52 7 0 389 0 389 -104 0
c-110 0 -116 -3 -116 -52 0 -12 -5 -50 -11 -85 l-11 -63 -84 0 -84 0 0 195 0
195 530 0 530 0 0 -195z m1095 35 l0 -155 -87 -3 -87 -3 -12 76 -13 75 -138 0
-138 0 0 -155 0 -155 89 0 90 0 11 55 11 55 80 0 79 0 0 -185 0 -185 -80 0
c-88 0 -78 -8 -95 75 -5 24 -7 25 -95 25 l-90 0 0 -165 0 -165 139 0 139 0 7
43 c3 23 9 57 12 75 l5 32 89 0 89 0 0 -160 0 -160 -450 0 -450 0 0 69 c0 79
-6 75 109 92 l81 12 0 397 0 397 -57 7 c-32 4 -75 11 -95 17 l-38 10 0 69 0
70 448 -2 447 -3 0 -155z m923 88 l3 -67 -38 -10 c-21 -6 -64 -13 -95 -17
l-58 -7 0 -383 0 -384 129 0 129 0 6 28 c3 15 11 57 17 95 l11 67 84 0 84 0 0
-195 0 -195 -440 0 -440 0 0 70 0 69 38 10 c20 5 61 12 90 16 l52 7 0 397 0
397 -87 15 -88 14 -3 73 -3 72 303 -2 303 -3 3 -67z m1082 3 c0 -39 -4 -72
-10 -76 -5 -3 -45 -11 -90 -17 l-80 -12 0 -397 0 -397 53 -7 c28 -4 69 -11 90
-16 l37 -10 0 -69 0 -70 -300 0 -300 0 0 70 0 69 38 10 c20 5 61 12 90 16 l52
7 0 397 0 397 -87 15 -88 14 -3 73 -3 72 301 0 300 0 0 -69z m2475 -91 l0
-155 -85 0 -85 0 -14 73 -14 72 -133 0 -134 0 0 -155 0 -155 85 0 c60 0 87 4
89 13 2 6 8 30 12 52 l9 40 78 3 77 3 0 -186 0 -185 -79 0 c-86 0 -91 4 -91
73 l0 27 -90 0 -90 0 0 -165 0 -165 135 0 134 0 7 38 c3 20 9 53 13 72 l7 35
87 3 87 3 0 -161 0 -160 -447 2 -448 3 -3 64 c-2 43 1 67 9 72 7 4 50 13 96
20 l83 12 0 397 0 397 -57 7 c-32 4 -75 11 -95 17 l-38 10 0 63 c0 34 3 66 7
69 3 4 205 6 447 5 l441 -3 0 -155z m1028 -182 c118 -189 234 -374 256 -413
l41 -70 0 325 0 325 -77 13 c-42 6 -81 16 -86 21 -4 4 -7 37 -5 72 l3 64 268
3 267 2 0 -74 0 -74 -70 -13 -70 -12 -2 -481 -3 -481 -158 0 -159 0 -205 325
c-113 179 -227 363 -254 410 l-49 85 0 -326 0 -326 78 -14 77 -14 3 -72 3 -73
-286 0 -285 0 0 69 c0 79 -6 75 109 92 l81 12 0 396 0 397 -92 14 -93 15 -3
73 -3 72 249 0 250 0 215 -342z m2685 270 l-3 -73 -87 -14 -88 -15 0 -397 0
-396 77 -13 c108 -17 103 -12 103 -91 l0 -69 -302 2 -303 3 -3 64 c-2 43 1 67
9 72 7 4 50 13 96 20 l83 12 0 397 0 397 -57 7 c-32 4 -75 11 -95 17 l-38 10
0 63 c0 34 3 66 7 69 3 4 141 7 305 7 l299 0 -3 -72z m968 60 c4 -6 87 -225
184 -487 l178 -476 58 -10 59 -10 3 -73 3 -72 -268 2 -268 3 -3 64 c-4 74 -1
78 78 86 83 10 81 6 55 77 l-23 63 -223 0 -224 0 -21 -60 c-12 -33 -20 -63
-18 -66 2 -3 28 -9 58 -13 87 -10 86 -9 86 -87 l0 -69 -255 0 -256 0 3 73 3
72 59 10 59 10 173 465 c96 256 178 475 184 488 9 21 14 22 159 22 102 0 152
-4 157 -12z m-6889 -1858 c169 -46 292 -177 339 -360 22 -81 24 -273 5 -350
-52 -211 -212 -371 -421 -421 -77 -18 -241 -16 -319 5 -172 45 -290 162 -345
346 -26 83 -31 259 -12 350 42 200 183 362 371 425 109 37 260 39 382 5z
m-6879 -187 l2 -193 -85 0 c-60 0 -87 4 -90 13 -2 6 -9 51 -15 100 l-12 87
-109 0 -109 0 0 -389 0 -389 58 -7 c31 -3 74 -11 95 -16 l37 -10 0 -70 0 -69
-302 2 -303 3 -3 64 c-2 43 1 67 9 72 7 4 50 13 96 20 l83 12 0 389 0 388
-108 0 -109 0 -14 -97 -14 -98 -87 -3 -88 -3 0 189 c0 104 3 192 7 195 3 4
243 6 532 5 l526 -3 3 -192z m1092 37 l0 -161 -87 3 -87 3 -7 35 c-4 19 -10
52 -13 73 l-7 37 -134 0 -135 0 0 -155 0 -155 88 0 88 0 10 53 9 52 78 3 77 3
0 -186 0 -185 -75 0 c-72 0 -76 1 -85 26 -6 14 -10 36 -10 50 0 24 -1 24 -90
24 l-90 0 0 -165 0 -166 137 3 138 3 7 50 c14 101 8 95 103 95 l85 0 0 -160 0
-160 -445 0 -446 0 3 73 3 72 88 14 87 15 0 396 0 396 -87 15 -88 14 -3 73 -3
72 446 0 445 0 0 -160z m1048 145 c170 -40 256 -139 255 -295 0 -88 -19 -146
-67 -205 -34 -41 -125 -96 -179 -109 -16 -4 -27 -10 -25 -14 2 -4 51 -79 109
-168 l106 -160 69 -15 69 -14 3 -72 3 -73 -166 0 -166 0 -29 48 c-16 26 -80
130 -142 232 -147 241 -152 242 -156 41 -3 -152 0 -160 43 -161 11 0 37 -5 58
-11 l37 -10 0 -70 0 -69 -277 2 -278 3 -3 64 c-2 43 1 67 9 72 7 4 50 13 96
20 l83 12 0 397 0 397 -57 7 c-32 4 -75 11 -95 17 l-38 10 0 63 c0 34 3 66 7
69 3 4 155 7 337 7 257 0 345 -4 394 -15z m1293 5 c79 -15 172 -64 214 -113
95 -110 82 -314 -27 -413 -52 -48 -65 -55 -126 -78 l-59 -21 108 -165 108
-165 68 -15 68 -15 3 -73 3 -72 -165 0 -165 0 -142 235 c-179 295 -181 296
-177 83 l3 -152 60 -11 60 -10 3 -72 3 -73 -276 0 -276 0 3 73 3 72 88 14 87
15 0 396 0 396 -87 15 -88 14 -3 73 -3 72 329 0 c181 0 354 -5 383 -10z m1207
-62 l3 -67 -38 -10 c-21 -6 -64 -13 -95 -17 l-58 -7 0 -397 0 -397 83 -12 c46
-7 89 -16 96 -20 8 -5 11 -29 9 -72 l-3 -64 -302 -3 -303 -2 0 69 0 70 38 10
c20 5 63 13 95 16 l57 7 0 397 0 397 -92 14 -93 15 -3 73 -3 72 303 -2 303 -3
3 -67z m1260 -125 l2 -193 -84 0 c-97 0 -89 -9 -107 118 l-11 82 -109 0 -109
0 0 -389 0 -389 58 -7 c31 -3 74 -11 95 -16 l37 -10 0 -70 0 -69 -302 2 -303
3 -3 64 c-2 43 1 67 9 72 7 4 50 13 96 20 l83 12 0 389 0 388 -108 0 -109 0
-14 -97 -14 -98 -87 -3 -88 -3 0 189 c0 104 3 192 7 195 3 4 243 6 532 5 l526
-3 3 -192z m2359 174 c164 -55 247 -192 214 -355 -22 -110 -106 -202 -217
-237 -46 -14 -52 -19 -44 -33 6 -10 54 -84 109 -167 l98 -150 69 -15 69 -15 3
-73 3 -72 -167 2 -167 3 -141 232 c-99 163 -146 233 -159 233 -16 0 -17 -12
-15 -152 l3 -152 60 -11 60 -10 3 -73 3 -72 -278 2 -278 3 -3 64 c-2 43 1 67
9 72 7 4 50 13 96 20 l83 12 0 397 0 397 -57 7 c-32 4 -75 11 -95 17 l-38 10
0 63 c0 34 3 66 7 70 4 4 167 6 363 4 302 -3 363 -6 407 -21z m1151 -49 l3
-67 -38 -10 c-21 -6 -64 -13 -95 -17 l-58 -7 0 -397 0 -397 83 -12 c46 -7 89
-16 96 -20 8 -5 11 -29 9 -72 l-3 -64 -302 -3 -303 -2 0 69 0 70 38 10 c20 5
61 12 90 16 l52 7 0 397 0 397 -87 15 -88 14 -3 73 -3 72 303 -2 303 -3 3 -67z
m967 55 c4 -10 83 -223 176 -473 93 -250 172 -462 177 -470 5 -8 33 -19 63
-25 l54 -10 3 -72 3 -73 -266 0 -265 0 0 69 c0 78 -1 77 86 87 30 4 57 10 59
14 3 5 -5 35 -17 69 l-22 61 -222 0 -223 0 -20 -55 c-30 -80 -29 -81 37 -88
94 -10 93 -10 90 -86 l-3 -66 -253 -3 -253 -2 3 72 3 73 53 10 c30 6 58 18 63
26 4 9 85 221 178 470 93 250 172 462 176 472 6 15 24 17 160 17 136 0 154 -2
160 -17z m1253 -55 l-3 -73 -87 -14 -88 -15 0 -383 0 -383 129 0 128 0 12 78
c19 121 10 112 107 112 l84 0 0 -195 0 -195 -440 0 -441 0 3 73 3 72 88 14 87
15 0 396 0 397 -81 11 c-44 7 -85 14 -90 17 -5 4 -9 37 -9 76 l0 69 300 0 301
0 -3 -72z m102 -1733 c0 -13 -706 -15 -6290 -15 -5584 0 -6290 2 -6290 15 0
13 706 15 6290 15 5584 0 6290 -2 6290 -15z m-7742 -451 l32 -6 0 -104 0 -104
-85 0 -85 0 -6 30 c-6 27 -10 30 -43 30 -21 0 -46 -6 -57 -14 -33 -25 -6 -47
97 -81 52 -16 110 -39 129 -51 71 -41 97 -113 80 -218 -28 -172 -129 -207
-492 -169 l-58 6 0 108 0 109 85 0 85 0 0 -30 c0 -30 1 -30 54 -30 37 0 58 5
67 16 23 28 -3 47 -112 84 -57 20 -116 44 -131 54 -46 31 -71 82 -71 145 0
118 79 202 217 231 43 10 238 5 294 -6z m1510 0 l32 -6 0 -125 0 -124 -92 3
c-93 3 -93 3 -96 30 -8 72 -143 35 -178 -48 -43 -103 10 -214 102 -214 24 0
44 5 44 10 0 11 -7 14 -52 24 -28 6 -28 8 -28 81 l0 75 185 0 186 0 -3 -77
c-3 -72 -5 -78 -25 -81 -22 -3 -23 -8 -23 -97 l0 -93 -37 -15 c-43 -17 -122
-33 -203 -42 -115 -13 -254 29 -323 99 -49 48 -73 99 -88 180 -36 194 76 373
266 423 50 13 263 11 333 -3z m-3261 -18 c76 -24 133 -72 168 -141 28 -54 30
-66 30 -165 0 -103 -1 -110 -35 -176 -40 -78 -97 -128 -183 -160 -46 -17 -79
-19 -307 -19 l-255 0 -3 72 -3 72 48 6 c26 4 54 8 61 10 9 3 12 48 12 179 l0
174 -57 8 -58 9 -3 72 -3 72 118 4 c227 7 415 0 470 -17z m7486 4 c50 -15 103
-63 117 -106 18 -53 4 -118 -32 -160 -31 -34 -31 -35 -11 -49 52 -36 70 -153
34 -223 -25 -49 -56 -76 -116 -104 -48 -22 -63 -23 -317 -26 l-268 -3 0 75 0
75 38 6 c20 4 44 7 52 8 13 2 15 31 18 179 l2 177 -55 6 -55 7 0 74 0 73 123
4 c194 6 429 0 470 -13z m-6463 -90 l0 -100 -94 0 c-90 0 -95 1 -98 23 -3 19
-10 22 -50 25 l-48 3 0 -55 0 -56 35 0 c24 0 35 5 35 15 0 12 16 15 85 15 l85
0 0 -105 0 -105 -85 0 c-69 0 -85 3 -85 15 0 10 -11 15 -35 15 l-35 0 0 -55 0
-55 50 0 c47 0 50 2 50 25 l0 25 100 0 101 0 -3 -102 -3 -103 -322 -3 -323 -2
0 74 c0 81 4 86 78 86 l32 0 0 179 0 180 -55 6 -55 7 0 74 0 74 320 0 320 0 0
-100z m1450 26 l0 -74 -55 -7 -55 -6 2 -177 c3 -148 5 -177 18 -179 8 -1 32
-4 53 -8 l37 -6 0 -74 0 -75 -230 0 -230 0 0 74 c0 81 4 86 78 86 l32 0 0 179
0 180 -55 6 -55 7 0 74 0 74 230 0 230 0 0 -74z m1583 -83 c48 -87 91 -165 97
-173 7 -10 10 13 10 76 l0 90 -37 10 -38 9 -3 73 -3 72 196 0 195 0 0 -74 0
-74 -40 -7 -40 -7 0 -259 0 -259 -162 0 -163 0 -88 158 c-48 86 -92 164 -97
172 -7 10 -10 -14 -10 -77 l0 -92 33 -3 32 -3 3 -77 3 -78 -211 0 -210 0 0 74
c0 81 4 86 78 86 l32 0 0 179 0 179 -52 9 -53 8 -3 73 -3 72 223 0 223 0 88
-157z m1557 83 l0 -74 -55 -7 -55 -6 0 -160 0 -159 35 0 c30 0 35 3 35 23 1
65 4 67 106 67 l95 0 -3 -142 -3 -143 -307 -3 -308 -2 0 74 0 75 38 6 c20 4
44 7 52 8 13 2 15 31 18 179 l2 177 -55 6 -55 7 0 74 0 74 230 0 230 0 0 -74z
m971 -183 c77 -232 88 -258 110 -263 23 -5 24 -11 27 -83 l3 -77 -191 0 -190
0 0 75 0 74 34 7 c25 4 33 10 29 20 -4 12 -25 14 -96 12 -95 -3 -128 -20 -62
-32 l35 -7 0 -74 0 -75 -180 0 -180 0 0 75 c0 75 0 76 28 81 27 5 31 16 106
242 43 131 83 247 87 260 8 22 11 22 181 22 l173 0 86 -257z m-1703 -173 c43
-27 76 -99 67 -146 -14 -79 -107 -138 -180 -114 -39 13 -92 68 -101 105 -14
58 27 144 80 165 38 16 100 11 134 -10z m-194 -706 l46 -7 0 -93 0 -94 -39 0
c-43 0 -51 10 -51 65 0 29 -4 34 -30 40 -17 4 -54 4 -82 0 -60 -8 -108 -48
-108 -88 0 -47 34 -72 147 -112 121 -41 169 -72 189 -121 45 -107 -25 -232
-150 -269 -51 -15 -191 -20 -258 -9 l-38 7 0 98 0 99 40 0 c42 0 42 0 53 -90
5 -33 134 -35 189 -2 52 30 63 99 23 136 -14 13 -62 36 -107 50 -106 36 -150
58 -181 95 -45 54 -47 131 -6 198 51 82 193 120 363 97z m-5234 -39 c0 -38 -3
-40 -63 -50 l-39 -6 4 -199 c3 -217 5 -225 72 -274 40 -30 162 -30 203 0 61
46 68 70 72 281 l3 192 -38 6 c-61 10 -64 12 -64 50 l0 35 155 0 155 0 0 -34
c0 -36 -1 -37 -61 -50 l-27 -6 -4 -202 c-3 -179 -6 -208 -24 -248 -45 -98
-142 -150 -279 -150 -128 0 -214 41 -258 123 -20 39 -22 57 -25 259 -4 237 1
218 -64 232 -24 6 -28 11 -28 41 l0 35 155 0 155 0 0 -35z m1105 -206 c83
-132 155 -247 162 -257 10 -14 12 25 13 194 l0 212 -37 6 c-70 13 -73 15 -73
52 l0 34 156 0 155 0 -3 -37 c-3 -36 -5 -39 -45 -47 l-43 -9 0 -293 0 -294
-79 0 -78 0 -136 213 c-74 116 -147 232 -161 257 l-26 45 0 -212 0 -211 33 -7
c65 -13 67 -15 67 -51 l0 -34 -165 0 -165 0 0 34 c0 37 3 39 73 51 l37 6 0
249 0 249 -37 6 c-70 12 -73 14 -73 51 l0 34 138 0 137 -1 150 -240z m965 207
c0 -37 -3 -39 -73 -51 l-37 -6 2 -252 c3 -215 5 -252 18 -254 88 -11 90 -12
90 -48 l0 -35 -175 0 -175 0 0 35 c0 32 3 35 38 40 20 3 47 8 60 11 l22 4 0
249 0 249 -42 7 c-75 11 -78 14 -78 51 l0 34 175 0 175 0 0 -34z m490 0 c0
-36 -12 -46 -56 -46 -14 0 -27 -6 -30 -13 -2 -7 26 -100 64 -207 38 -107 74
-208 80 -225 l10 -30 7 30 c5 17 41 119 82 228 40 109 71 203 68 208 -4 5 -17
9 -30 9 -43 0 -55 10 -55 46 l0 34 150 0 150 0 0 -35 c0 -30 -4 -35 -27 -40
-16 -4 -35 -10 -43 -14 -8 -4 -64 -139 -125 -300 l-110 -292 -75 3 -74 3 -111
295 -110 295 -35 5 c-32 5 -35 8 -38 43 l-3 37 155 0 156 0 0 -34z m1130 -62
l0 -95 -42 3 c-43 3 -43 3 -52 51 l-9 47 -89 0 -88 0 0 -100 0 -100 60 0 c52
0 60 2 60 19 0 40 11 51 51 51 l39 0 0 -115 0 -115 -40 0 c-35 0 -40 3 -46 28
-3 15 -7 33 -10 40 -2 8 -23 12 -59 12 l-55 0 0 -110 0 -110 90 0 89 0 6 38
c10 60 12 62 55 62 l40 0 0 -95 0 -95 -255 0 -255 0 0 34 c0 36 12 46 55 46
57 0 55 -9 55 260 l0 248 -52 9 c-52 8 -53 9 -56 46 l-3 37 255 0 256 0 0 -96z
m758 66 c134 -76 112 -271 -36 -326 -26 -10 -48 -19 -50 -20 -9 -6 139 -213
155 -217 10 -3 30 -8 46 -11 23 -6 27 -11 27 -41 l0 -35 -93 0 -93 0 -90 142
c-50 78 -96 144 -102 146 -9 3 -12 -25 -12 -102 l0 -106 29 0 c49 0 61 -9 61
-46 l0 -34 -160 0 -160 0 0 34 c0 36 12 46 55 46 57 0 55 -9 55 261 l0 248
-37 6 c-70 12 -73 14 -73 51 l0 35 218 -3 c209 -3 219 -4 260 -28z m1460 -7
c-3 -37 -4 -38 -55 -46 l-53 -9 0 -248 c0 -269 -2 -260 55 -260 43 0 55 -10
55 -46 l0 -34 -170 0 -170 0 0 35 c0 32 3 35 38 40 79 14 72 -12 72 265 l0
249 -37 6 c-70 12 -73 14 -73 51 l0 34 171 0 170 0 -3 -37z m732 21 c125 -37
188 -111 210 -248 20 -126 -20 -259 -99 -328 -89 -78 -192 -99 -436 -91 l-165
6 0 33 c0 35 3 36 90 47 13 2 15 39 18 254 l2 252 -37 6 c-70 12 -73 14 -73
51 l0 34 218 0 c170 0 230 -3 272 -16z m926 -284 l111 -295 42 -8 c39 -8 41
-10 41 -43 l0 -34 -155 0 -155 0 0 34 c0 37 12 46 61 46 33 0 35 4 14 54 l-15
36 -141 0 -140 0 -15 -35 c-20 -48 -18 -55 15 -55 49 0 61 -9 61 -46 l0 -34
-150 0 -150 0 0 34 c0 33 3 35 41 43 l41 8 105 275 c58 151 109 285 114 298 8
21 14 23 86 20 l78 -3 111 -295z m851 286 c95 -25 156 -76 195 -161 19 -42 23
-67 23 -155 0 -118 -16 -166 -76 -234 -91 -104 -178 -125 -496 -118 l-123 2 0
34 c0 36 12 46 55 46 57 0 55 -9 55 260 l0 248 -52 9 c-52 8 -53 9 -56 46 l-3
37 213 0 c150 0 228 -4 265 -14z m-1993 -784 c14 -21 26 -41 26 -45 0 -12
-181 -129 -193 -124 -7 3 -20 18 -29 34 l-17 29 92 72 c51 40 93 72 93 72 1 0
13 -17 28 -38z m864 -29 c51 -29 102 -32 138 -8 29 19 37 14 52 -32 12 -36 7
-44 -51 -68 -54 -22 -94 -19 -165 15 -75 35 -110 38 -145 10 -14 -11 -27 -20
-29 -20 -3 0 -10 19 -17 42 -12 39 -11 43 11 60 55 43 132 44 206 1z m-5923
-238 c63 -30 98 -69 134 -145 22 -48 26 -69 26 -155 0 -125 -19 -185 -82 -255
-68 -76 -128 -103 -239 -108 -110 -5 -171 12 -232 64 -108 92 -141 309 -68
453 26 50 94 119 145 145 84 44 228 45 316 1z m2370 0 c97 -47 153 -142 162
-273 12 -167 -51 -291 -182 -359 -66 -35 -194 -43 -280 -19 -76 23 -143 88
-174 172 -31 82 -32 216 -2 295 37 98 123 178 221 206 71 20 190 10 255 -22z
m-4180 -275 l112 -295 41 -8 c40 -8 42 -10 42 -43 l0 -34 -160 0 -160 0 0 35
c0 34 1 34 50 41 54 7 54 5 29 72 -8 21 -12 22 -149 22 l-141 0 -15 -35 c-19
-47 -18 -55 9 -55 52 0 67 -11 67 -46 l0 -34 -150 0 -150 0 0 34 c0 33 3 35
41 43 l41 8 107 280 c59 154 110 288 114 298 6 15 17 17 84 15 l76 -3 112
-295z m850 285 c118 -30 192 -110 215 -230 34 -179 -34 -333 -175 -400 -80
-37 -168 -47 -352 -39 l-163 7 0 32 c0 36 16 45 78 45 l32 0 0 254 0 253 -52
9 c-52 9 -53 10 -56 47 l-3 37 208 0 c154 0 224 -4 268 -15z m1695 -24 l0 -39
-55 -7 -55 -6 0 -245 0 -244 89 0 89 0 7 43 c12 75 13 77 56 77 l39 0 0 -110
0 -110 -255 0 -255 0 0 34 c0 37 15 46 78 46 l32 0 0 254 0 254 -52 9 c-52 8
-53 9 -56 46 l-3 37 170 0 171 0 0 -39z m880 -56 l0 -95 -44 0 -44 0 -7 50 -7
50 -84 0 -84 0 0 -105 0 -105 60 0 c52 0 60 2 60 19 0 40 11 51 51 51 l39 0 0
-115 0 -115 -40 0 c-35 0 -40 3 -46 28 -3 15 -7 33 -10 40 -2 8 -23 12 -59 12
l-55 0 0 -110 0 -110 33 0 c62 0 77 -9 77 -46 l0 -34 -175 0 -175 0 0 34 c0
34 1 35 48 41 26 4 53 8 60 10 9 3 12 63 12 254 l0 249 -57 8 c-58 9 -58 9
-61 47 l-3 37 255 0 256 0 0 -95z m1898 58 c-3 -37 -4 -38 -55 -47 l-53 -9 0
-253 0 -254 33 0 c62 0 77 -9 77 -46 l0 -34 -170 0 -170 0 0 34 c0 37 15 46
78 46 l32 0 0 254 0 253 -52 9 c-52 9 -53 10 -56 47 l-3 37 171 0 171 0 -3
-37z m739 8 c47 -27 83 -86 83 -136 0 -42 -38 -112 -71 -132 -16 -10 -29 -20
-29 -23 0 -3 15 -12 32 -21 45 -22 70 -60 76 -117 6 -65 -10 -111 -55 -155
-64 -65 -127 -75 -410 -69 l-123 2 0 34 c0 30 4 34 31 40 17 3 42 6 55 6 l24
0 0 254 0 254 -52 9 c-52 8 -53 9 -56 46 l-3 38 228 -3 c220 -3 229 -4 270
-27z m883 -270 l113 -299 38 -6 c37 -6 39 -8 39 -41 l0 -35 -155 0 -155 0 0
35 c0 34 1 34 49 41 l49 6 -15 44 -15 44 -143 0 -143 0 -10 -27 c-5 -16 -13
-35 -17 -44 -5 -13 3 -18 44 -23 50 -7 51 -7 51 -41 l0 -35 -150 0 -150 0 0
35 c0 33 2 35 38 41 l38 6 114 299 115 299 76 0 76 0 113 -299z m775 93 c72
-113 145 -229 162 -257 l33 -52 0 211 0 211 -47 9 c-46 9 -48 10 -51 47 l-3
37 156 0 156 0 -3 -37 c-3 -36 -5 -39 -45 -47 l-43 -9 0 -293 0 -294 -83 0
-83 0 -120 187 c-65 103 -138 218 -161 257 l-43 70 0 -212 c0 -161 3 -214 13
-217 6 -2 29 -6 50 -10 34 -5 37 -8 37 -40 l0 -35 -165 0 -165 0 0 35 c0 36 2
37 90 48 13 2 15 39 18 254 l2 251 -52 9 c-52 8 -53 9 -56 46 l-3 37 138 0
138 0 130 -206z m1135 111 l0 -95 -44 0 -44 0 -7 50 -7 50 -89 0 -89 0 0 -100
0 -100 60 0 c52 0 60 2 60 19 0 40 11 51 51 51 l39 0 0 -115 0 -115 -39 0
c-40 0 -51 11 -51 51 0 17 -8 19 -60 19 l-60 0 0 -105 0 -105 90 0 89 0 6 38
c10 60 12 62 55 62 l40 0 0 -95 0 -95 -255 0 -255 0 0 34 c0 37 15 46 78 46
l32 0 0 254 0 253 -52 9 c-52 9 -53 10 -56 47 l-3 37 255 0 256 0 0 -95z m820
48 c0 -44 -7 -56 -172 -277 -95 -127 -176 -237 -181 -244 -8 -10 17 -12 124
-10 110 3 134 6 136 18 11 90 11 90 53 90 l40 0 0 -105 0 -105 -260 0 -260 0
0 43 c0 39 14 60 180 282 98 132 179 243 180 248 0 4 -56 7 -124 7 l-124 0 -7
-55 -6 -55 -45 0 -44 0 0 105 0 105 255 0 255 0 0 -47z"/>
<path d="M8540 20086 c0 -7 790 -941 798 -943 5 -2 661 842 721 927 13 20 8
20 -753 20 -421 0 -766 -2 -766 -4z"/>
<path d="M9869 19613 c-202 -263 -366 -479 -365 -480 3 -3 1703 901 1711 909
2 2 -177 12 -398 22 -221 9 -442 19 -492 22 l-90 5 -366 -478z"/>
<path d="M11231 19903 c-151 -82 -228 -129 -220 -133 8 -5 345 -148 749 -320
404 -172 737 -314 740 -315 8 -5 652 390 654 400 0 4 -155 88 -346 187 l-347
179 -433 65 c-238 35 -462 64 -498 63 -64 -1 -70 -4 -299 -126z"/>
<path d="M8450 18985 c0 -846 2 -997 14 -985 37 40 786 1021 786 1030 0 8
-724 875 -781 935 -19 19 -19 -1 -19 -980z"/>
<path d="M10211 19358 c-349 -185 -638 -341 -642 -345 -6 -6 1361 -765 1367
-759 3 2 -85 1419 -88 1432 -2 5 -288 -142 -637 -328z"/>
<path d="M10987 19577 c2 -34 21 -342 42 -685 21 -342 40 -625 43 -628 7 -6
1288 775 1288 785 0 4 -1256 543 -1360 583 -16 6 -17 0 -13 -55z"/>
<path d="M12980 19269 c-190 -116 -346 -212 -347 -213 -1 -1 299 -55 668 -120
369 -65 672 -116 674 -114 3 2 -143 151 -323 331 l-327 327 -345 -211z"/>
<path d="M11832 18568 c-352 -216 -640 -393 -639 -394 4 -5 1251 -363 1253
-361 4 3 34 1141 30 1144 -1 1 -291 -174 -644 -389z"/>
<path d="M9384 18914 c3 -21 58 -444 121 -939 64 -495 117 -904 118 -909 2 -5
287 231 635 525 347 293 628 537 624 540 -8 8 -1470 809 -1490 817 -11 4 -13
-3 -8 -34z"/>
<path d="M12606 18825 c-9 -156 -27 -968 -22 -973 3 -2 309 184 680 414 371
230 673 420 671 423 -3 2 -301 57 -664 121 l-659 116 -6 -101z"/>
<path d="M9199 18740 c-36 -47 -220 -285 -408 -528 l-341 -444 0 -669 0 -669
332 -415 c183 -228 334 -415 337 -415 4 0 91 314 194 698 l188 697 -115 895
c-64 492 -117 904 -118 915 -2 15 -19 -1 -69 -65z"/>
<path d="M13793 18442 c-182 -114 -329 -209 -327 -212 8 -8 1098 -427 1103
-424 5 4 -430 844 -437 843 -4 0 -156 -93 -339 -207z"/>
<path d="M12960 17924 c-190 -118 -351 -218 -358 -222 -17 -11 200 -718 220
-714 25 6 1638 707 1638 712 0 6 -1131 441 -1145 440 -5 0 -165 -98 -355 -216z"/>
<path d="M11100 18055 c0 -7 411 -1489 413 -1492 2 -1 1135 357 1163 368 14 5
-208 730 -227 741 -14 8 -1330 388 -1342 388 -4 0 -7 -2 -7 -5z"/>
<path d="M10455 17588 c-707 -596 -757 -639 -752 -644 6 -6 1669 -395 1673
-392 4 5 -396 1451 -404 1460 -4 4 -236 -187 -517 -424z"/>
<path d="M13668 17211 c-439 -190 -798 -349 -798 -353 0 -4 394 -636 414 -665
1 -1 236 266 523 595 287 328 555 636 598 685 42 48 73 87 68 86 -4 -1 -367
-157 -805 -348z"/>
<path d="M14040 16859 c-327 -375 -599 -688 -603 -695 -4 -7 32 5 80 27 48 22
336 153 638 291 303 138 552 252 554 254 5 4 -57 712 -67 767 l-7 38 -595
-682z"/>
<path d="M9684 16793 c3 -10 104 -412 226 -893 121 -481 224 -884 228 -894 7
-16 112 107 577 675 312 382 577 704 588 716 11 13 18 25 16 28 -5 4 -1619
385 -1634 385 -3 0 -4 -8 -1 -17z"/>
<path d="M12208 16647 c-278 -89 -509 -164 -512 -167 -3 -3 326 -84 731 -178
404 -95 736 -172 738 -170 1 2 -92 155 -209 340 -128 205 -217 337 -226 337
-8 -1 -243 -74 -522 -162z"/>
<path d="M9542 16645 c-177 -647 -315 -1166 -311 -1168 21 -17 772 -488 773
-485 3 3 -424 1686 -435 1718 -3 8 -15 -21 -27 -65z"/>
<path d="M14057 16296 c-351 -160 -645 -296 -654 -302 -14 -9 -1 -87 128 -757
79 -411 146 -746 150 -745 4 2 169 203 366 447 l358 444 147 601 c80 330 146
601 145 602 -1 1 -289 -130 -640 -290z"/>
<path d="M11570 16363 c0 -12 368 -1343 378 -1366 6 -15 109 67 607 482 330
275 601 504 602 508 2 5 -349 92 -779 192 -431 101 -789 186 -795 189 -7 2
-13 0 -13 -5z"/>
<path d="M10842 15630 l-591 -720 789 0 c518 0 790 3 790 10 0 11 -390 1423
-395 1428 -1 2 -268 -321 -593 -718z"/>
<path d="M8451 15049 l0 -1174 310 775 c170 426 309 780 309 786 0 6 -139 186
-310 399 l-310 387 1 -1173z"/>
<path d="M12651 15391 c-488 -407 -609 -512 -594 -518 33 -13 1498 -480 1500
-478 4 2 -277 1468 -285 1488 -7 16 -105 -62 -621 -492z"/>
<path d="M9275 15253 c8 -26 110 -379 227 -785 116 -405 213 -736 215 -734 5
5 313 1060 313 1072 0 8 -661 434 -757 488 -9 5 -9 -6 2 -41z"/>
<path d="M8813 14432 c-177 -444 -325 -815 -329 -824 -6 -17 25 -18 566 -18
453 0 571 3 567 13 -2 6 -109 378 -238 824 -129 447 -236 813 -239 813 -3 0
-150 -364 -327 -808z"/>
<path d="M10820 14225 c305 -305 557 -555 560 -555 4 0 215 545 412 1063 l18
47 -773 0 -772 0 555 -555z"/>
<path d="M12070 14726 c0 -13 485 -976 492 -976 11 0 869 542 865 546 -2 2
-300 98 -663 214 -362 115 -667 213 -676 216 -10 3 -18 3 -18 0z"/>
<path d="M10140 14715 c0 -3 -72 -252 -160 -553 -88 -301 -160 -553 -160 -560
0 -9 157 -12 727 -12 l728 0 -565 565 c-311 311 -566 565 -567 565 -2 0 -3 -2
-3 -5z"/>
<path d="M11712 14163 c-116 -302 -207 -549 -202 -551 7 -3 769 79 877 94 l42
6 -250 499 c-137 274 -251 499 -253 499 -2 0 -98 -246 -214 -547z"/>
<path d="M14281 12423 c-87 -31 -165 -134 -190 -251 -41 -192 31 -388 167
-453 67 -32 187 -32 259 0 62 27 126 93 154 158 62 145 37 365 -53 468 -60 68
-123 95 -218 94 -41 0 -95 -8 -119 -16z"/>
<path d="M12930 12296 l0 -166 73 0 c39 0 89 5 109 10 44 13 93 52 113 91 21
40 19 117 -5 156 -31 51 -71 66 -187 71 l-103 4 0 -166z"/>
<path d="M2882 10733 l-42 -4 2 -367 3 -367 130 0 c122 0 134 2 193 29 138 64
197 179 190 370 -3 95 -6 110 -38 172 -40 78 -95 123 -183 149 -55 16 -185 26
-255 18z"/>
<path d="M19144 10566 c-28 -83 -65 -188 -82 -233 l-31 -83 169 0 170 0 -11
28 c-49 125 -138 373 -143 399 -4 18 -11 34 -14 36 -4 2 -30 -64 -58 -147z"/>
<path d="M12207 8870 c-98 -25 -180 -99 -218 -199 -40 -107 -36 -272 11 -377
45 -104 142 -166 260 -166 134 -1 225 53 282 170 30 61 33 76 37 179 3 94 0
124 -19 184 -18 61 -30 81 -78 128 -60 60 -101 78 -190 86 -26 2 -64 0 -85 -5z"/>
<path d="M7420 8730 l0 -160 26 -6 c48 -12 162 3 206 28 58 32 81 67 85 130 5
72 -18 116 -77 146 -37 18 -60 22 -142 22 l-98 0 0 -160z"/>
<path d="M8740 8731 c0 -180 -4 -171 84 -171 80 0 149 24 185 65 37 43 45 70
39 136 -9 91 -71 128 -215 129 l-93 0 0 -159z"/>
<path d="M13512 8728 l3 -163 53 -3 c156 -9 252 58 252 175 0 106 -66 152
-218 153 l-92 0 2 -162z"/>
<path d="M15786 8810 c-10 -34 -46 -138 -82 -232 -35 -94 -64 -174 -64 -179 0
-5 74 -9 165 -9 91 0 165 1 165 3 0 2 -21 59 -46 128 -26 68 -63 175 -84 237
l-37 112 -17 -60z"/>
<path d="M7623 6613 c-10 -3 -13 -41 -13 -139 0 -131 1 -134 23 -139 38 -10
99 17 124 54 30 45 32 132 3 178 -24 39 -95 64 -137 46z"/>
<path d="M15080 6599 l0 -52 40 6 c50 6 70 22 70 53 0 28 -26 44 -74 44 l-36
0 0 -51z"/>
<path d="M15080 6356 l0 -56 40 0 c27 0 47 7 60 20 40 40 16 80 -53 87 l-47 6
0 -57z"/>
<path d="M14127 6556 c-9 -36 -17 -67 -17 -70 0 -3 18 -6 40 -6 22 0 40 3 40
8 0 12 -36 121 -41 126 -3 3 -13 -23 -22 -58z"/>
<path d="M11490 5475 l0 -105 63 0 c80 0 121 23 138 78 23 79 -35 132 -143
132 l-58 0 0 -105z"/>
<path d="M13680 5330 l0 -240 68 0 c128 0 200 38 248 130 27 52 25 181 -3 235
-44 84 -108 115 -234 115 l-79 0 0 -240z"/>
<path d="M14605 5404 c-27 -75 -51 -140 -53 -145 -2 -5 45 -9 108 -9 61 0 110
4 108 8 -1 5 -25 70 -53 145 -27 75 -52 137 -55 137 -3 0 -27 -61 -55 -136z"/>
<path d="M15460 5330 l0 -240 74 0 c167 0 253 72 264 220 6 91 -11 146 -62
196 -49 50 -93 64 -198 64 l-78 0 0 -240z"/>
<path d="M8405 4513 c-81 -42 -118 -111 -118 -218 0 -163 66 -248 193 -248 99
0 167 50 195 146 39 131 -6 276 -98 318 -51 23 -131 24 -172 2z"/>
<path d="M10765 4507 c-85 -48 -125 -154 -104 -279 22 -138 110 -203 237 -177
39 8 63 21 91 47 82 78 94 250 25 355 -48 74 -168 100 -249 54z"/>
<path d="M6593 4358 c-28 -79 -50 -144 -49 -146 2 -1 51 -1 108 0 l105 3 -51
142 c-28 79 -53 143 -56 143 -3 0 -28 -64 -57 -142z"/>
<path d="M7450 4290 l0 -240 73 0 c84 0 131 11 178 43 102 69 119 271 32 368
-43 48 -108 69 -210 69 l-73 0 0 -240z"/>
<path d="M12650 4440 l0 -100 53 0 c78 0 139 33 151 82 19 77 -31 118 -144
118 l-60 0 0 -100z"/>
<path d="M12668 4253 c-16 -4 -18 -18 -18 -110 l0 -105 81 4 c77 3 82 5 110
36 52 58 34 140 -34 160 -40 13 -116 21 -139 15z"/>
<path d="M13542 4367 c-29 -78 -52 -145 -52 -149 0 -5 47 -8 105 -8 58 0 105
3 105 6 0 6 -79 227 -98 276 -5 12 -24 -28 -60 -125z"/>
</g>
</svg>
